<svg width="24" height="24" viewBox="0 0 24 24" fill="none" xmlns="http://www.w3.org/2000/svg">
<path d="M13 18.9978H19V9.97583L12 4.53183L5 9.97583V18.9978H11V12.9978H13V18.9978ZM21 19.9978C21 20.263 20.8946 20.5174 20.7071 20.7049C20.5196 20.8925 20.2652 20.9978 20 20.9978H4C3.73478 20.9978 3.48043 20.8925 3.29289 20.7049C3.10536 20.5174 3 20.263 3 19.9978V9.48783C2.99989 9.33544 3.03462 9.18505 3.10152 9.04813C3.16841 8.91121 3.26572 8.7914 3.386 8.69783L11.386 2.47583C11.5615 2.33928 11.7776 2.26514 12 2.26514C12.2224 2.26514 12.4385 2.33928 12.614 2.47583L20.614 8.69783C20.7343 8.7914 20.8316 8.91121 20.8985 9.04813C20.9654 9.18505 21.0001 9.33544 21 9.48783V19.9978Z" fill="#F02801"/>
</svg>
