<svg width="22" height="28" viewBox="0 0 22 28" fill="none" xmlns="http://www.w3.org/2000/svg">
<path d="M21.6667 28.0014H19V25.3348C19 24.2739 18.5786 23.2565 17.8285 22.5064C17.0783 21.7562 16.0609 21.3348 15 21.3348H7.00004C5.93917 21.3348 4.92176 21.7562 4.17161 22.5064C3.42147 23.2565 3.00004 24.2739 3.00004 25.3348V28.0014H0.333374V25.3348C0.333374 23.5667 1.03575 21.871 2.286 20.6207C3.53624 19.3705 5.23193 18.6681 7.00004 18.6681H15C16.7682 18.6681 18.4638 19.3705 19.7141 20.6207C20.9643 21.871 21.6667 23.5667 21.6667 25.3348V28.0014ZM11 16.0014C8.87795 16.0014 6.84278 15.1585 5.34224 13.6579C3.8417 12.1574 2.99871 10.1222 2.99871 8.00011C2.99871 5.87803 3.8417 3.84286 5.34224 2.34232C6.84278 0.841774 8.87795 -0.0012207 11 -0.0012207C13.1221 -0.0012207 15.1573 0.841774 16.6578 2.34232C18.1584 3.84286 19.0014 5.87803 19.0014 8.00011C19.0014 10.1222 18.1584 12.1574 16.6578 13.6579C15.1573 15.1585 13.1221 16.0014 11 16.0014ZM11 13.3348C12.4145 13.3348 13.7711 12.7729 14.7713 11.7727C15.7715 10.7725 16.3334 9.41593 16.3334 8.00145C16.3334 6.58696 15.7715 5.2304 14.7713 4.23021C13.7711 3.23002 12.4145 2.66811 11 2.66811C9.58555 2.66811 8.229 3.23002 7.2288 4.23021C6.22861 5.2304 5.66671 6.58696 5.66671 8.00145C5.66671 9.41593 6.22861 10.7725 7.2288 11.7727C8.229 12.7729 9.58555 13.3348 11 13.3348Z" fill="#98A2B3"/>
</svg>
